HIERARCHY
ROOT Hips
{
	OFFSET 0.00000 0.00000 0.00000
	CHANNELS 6 Xposition Yposition Zposition Yrotation Zrotation Xrotation 
	JOINT Lumbar
	{
		OFFSET 0 0 0
		CHANNELS 3 Zrotation Xrotation Yrotation
		JOINT Neck
		{
			OFFSET 0.00 0.2701 0.00
			CHANNELS 3 Zrotation Xrotation Yrotation
			End Site
			{
				OFFSET 0.00 0.1379 0.00
			}
		}
		JOINT RightShoulder
		{
			OFFSET 0.0119 0.2289 0.1181
			CHANNELS 3 Zrotation Xrotation Yrotation
			JOINT RightElbow
			{
				OFFSET 0.00 -0.1475 0.00
				CHANNELS 2 Zrotation Yrotation
				JOINT RightWrist
				{
					OFFSET 0.00 -0.1605 0.00
					CHANNELS 2 Zrotation Xrotation
					End Site
					{
						OFFSET 0.0040 -0.1068 0.0006
					}
				}
			}
		}
		JOINT LeftShoulder
		{
			OFFSET 0.0119 0.2289 -0.1181
			CHANNELS 3 Zrotation Xrotation Yrotation
			JOINT LeftElbow
			{
				OFFSET 0.00 -0.1475 0.00
				CHANNELS 2 Zrotation Yrotation
				JOINT LeftWrist
				{
					OFFSET 0.00 -0.1605 0.00
					CHANNELS 2 Zrotation Xrotation
					End Site
					{
						OFFSET 0.0040 -0.1068 -0.0006
					}
				}
			}
		}
	}
	JOINT RightHip
	{
		OFFSET 0.0316 -0.0424 0.0458
		CHANNELS 3 Zrotation Xrotation Yrotation
		JOINT RightKnee
		{
			OFFSET 0.00 -0.2438 0.00
			CHANNELS 1 Zrotation
			JOINT RightAnkle
			{
				OFFSET 0.00 -0.2449 0.00
				CHANNELS 3 Zrotation Xrotation Yrotation
				End Site
				{
					OFFSET 0.1237 -0.0542 0.0051
				}
			}
		}
	}
	JOINT LeftHip
	{
		OFFSET 0.0316 -0.0424 -0.0458
		CHANNELS 3 Zrotation Xrotation Yrotation
		JOINT LeftKnee
		{
			OFFSET 0.00 -0.2438 0.00
			CHANNELS 1 Zrotation
			JOINT LeftAnkle
			{
				OFFSET 0.00 -0.2449 0.00
				CHANNELS 3 Zrotation Xrotation Yrotation
				End Site
				{
					OFFSET 0.1237 -0.0542 -0.0051
				}
			}
		}
	}
}
MOTION
Frames: 16
Frame Time: 0.02
0.00085 0.00013 0.0005 29.65064 -17.32242 -2.52708 43.67917 -1.10351 -5.30672 -14.79938 2.72254 -1.13632 -20.59995 -5.01968 -17.45081 26.59607 96.41739 8.94605 2.00395 -18.87197 0.61602 30.03334 21.65787 -153.42268 31.72058 -9.8913 28.81449 -1.3823 -2.27545 -20.30988 -6.87719 -3.95142 -4.17719 33.80952 6.01467 7.01435 -24.27395 -6.8083 1.02911 2.75154
0.00072 0.00011 0.00036 29.79888 -17.36746 -2.60192 43.60046 -1.11379 -5.39727 -14.73421 2.77377 -1.13752 -20.47571 -5.00692 -17.72767 26.43418 96.39596 8.83757 1.9886 -19.09372 1.68986 27.57408 22.90667 -148.74704 30.25209 -9.10422 28.85307 -1.46066 -2.92369 -20.32278 -6.84237 -3.91721 -4.15631 33.91857 6.04156 6.99778 -24.30396 -6.81124 1.0193 2.7481
0.00058 9e-05 0.00023 29.94635 -17.4123 -2.67668 43.52211 -1.12394 -5.48727 -14.66963 2.82515 -1.13873 -20.35217 -4.9943 -18.00354 26.27369 96.37461 8.72958 1.9733 -19.31812 2.76347 25.11918 24.15945 -144.08574 28.78847 -8.3195 28.89144 -1.53873 -3.57036 -20.33559 -6.80763 -3.88305 -4.13546 34.02716 6.06841 6.98079 -24.33387 -6.81413 1.00962 2.7447
0.00045 7e-05 0.0001 30.09411 -17.45722 -2.75131 43.44368 -1.13417 -5.57751 -14.60469 2.87628 -1.13993 -20.22833 -4.98164 -18.27941 26.11227 96.35305 8.62144 1.95795 -19.53954 3.83437 22.66684 25.40547 -139.42428 27.32457 -7.53479 28.92993 -1.61685 -4.21673 -20.34843 -6.7729 -3.84893 -4.11463 34.13591 6.09521 6.96419 -24.36379 -6.81705 0.99986 2.74128
0.00031 5e-05 -4e-05 30.24267 -17.50225 -2.82597 43.36481 -1.14456 -5.66839 -14.53911 2.92711 -1.14113 -20.10375 -4.9687 -18.55662 25.94959 96.33198 8.51281 1.94267 -19.75758 4.90467 20.21173 26.64512 -134.74909 25.85566 -6.74787 28.96852 -1.69523 -4.86437 -20.36138 -6.73813 -3.81478 -4.0938 34.245 6.12206 6.94816 -24.39377 -6.82004 0.98994 2.73779
0.00018 3e-05 -0.00017 30.3878 -17.54663 -2.90094 43.28754 -1.15421 -5.75651 -14.47668 2.97965 -1.14236 -19.98243 -4.95669 -18.82985 25.794 96.31034 8.40618 1.92739 -19.99556 5.98535 17.75765 27.92569 -130.11757 24.40322 -5.96789 29.00635 -1.77262 -5.50888 -20.37391 -6.70346 -3.78059 -4.07292 34.35247 6.14894 6.92915 -24.42353 -6.82275 0.98075 2.7346
3e-05 1e-05 -0.00031 30.53985 -17.59256 -2.97518 43.20722 -1.16535 -5.85016 -14.40775 3.02873 -1.14352 -19.8545 -4.94312 -19.10993 25.62306 96.28839 8.29552 1.91182 -20.19187 7.04307 15.30325 29.12112 -125.40203 22.9194 -5.17452 29.04601 -1.85203 -6.1593 -20.38726 -6.66859 -3.74653 -4.05214 34.46349 6.17564 6.91619 -24.45375 -6.82599 0.97012 2.7308
-0.0001 -1e-05 -0.00044 30.6852 -17.63651 -3.05014 43.12954 -1.17507 -5.93858 -14.34524 3.08092 -1.14478 -19.73298 -4.93042 -19.38529 25.46854 96.26944 8.18881 1.8971 -20.42897 8.12358 12.85092 30.39761 -120.76624 21.46422 -4.394 29.08337 -1.92935 -6.8037 -20.39984 -6.63396 -3.71234 -4.03128 34.57047 6.20267 6.89762 -24.48348 -6.82877 0.9608 2.72757
-0.00022 -2e-05 -0.00058 30.82367 -17.68025 -3.12584 43.05578 -1.18323 -6.02108 -14.28893 3.13732 -1.146 -19.61807 -4.92108 -19.6486 25.32518 96.24339 8.08598 1.88106 -20.70723 9.22651 10.39247 31.765 -116.21697 20.04469 -3.62688 29.12035 -2.00506 -7.44334 -20.41152 -6.59938 -3.67798 -4.01026 34.67559 6.22945 6.87222 -24.5129 -6.83087 0.95312 2.72502
-0.00041 -6e-05 -0.00069 31.00565 -17.73183 -3.19687 42.96157 -1.2009 -6.13906 -14.19199 3.17074 -1.14695 -19.46146 -4.89929 -19.96239 25.09088 96.22579 7.95798 1.86553 -20.7226 10.18422 7.94307 32.58496 -111.1368 18.42193 -2.77569 29.16685 -2.09288 -8.1182 -20.42853 -6.56376 -3.64457 -3.98999 34.80065 6.25572 6.88617 -24.54495 -6.83654 0.93613 2.71854
-0.00045 -3e-05 -0.00087 31.09332 -17.76262 -3.27802 42.90915 -1.19818 -6.1813 -14.18391 3.25179 -1.14878 -19.39512 -4.89937 -20.18169 25.06543 96.21106 7.8849 1.85348 -21.30888 11.45826 5.49184 34.57455 -107.19822 17.22679 -2.10638 29.18856 -2.15333 -8.71368 -20.43421 -6.53083 -3.60918 -3.96825 34.87776 6.28429 6.81713 -24.57089 -6.83489 0.93872 2.72033
-9e-05 0.0002 -0.00121 30.93968 -17.77403 -3.38437 42.98577 -1.14198 -6.02248 -14.3952 3.47141 -1.15055 -19.55834 -4.99774 -20.03558 25.48496 96.01982 7.94655 1.81055 -23.33444 13.53696 2.87545 39.68195 -106.22468 17.2083 -1.90033 29.18416 -2.15382 -9.13166 -20.40907 -6.50126 -3.56794 -3.94144 34.87413 6.30815 6.51713 -24.58485 -6.8113 0.99649 2.7453
0.00042 0.00051 -0.00162 30.68779 -17.7598 -3.50097 43.10313 -1.06507 -5.78741 -14.69945 3.73685 -1.1536 -19.8142 -5.11203 -19.81074 26.14159 95.85536 8.06443 1.77641 -25.94933 15.95066 0.27557 45.9761 -106.41385 17.60631 -1.88104 29.14988 -2.12469 -9.46296 -20.37253 -6.47506 -3.52469 -3.91328 34.81573 6.33562 6.13405 -24.59191 -6.78073 1.07384 2.77857
0.00086 0.00078 -0.002 30.46982 -17.72985 -3.61507 43.19063 -0.99576 -5.58147 -14.97816 3.97688 -1.15772 -20.04128 -5.19272 -19.69569 26.76881 95.81218 8.16946 1.76749 -28.3874 18.24542 -2.21296 51.79341 -106.19911 17.82726 -1.80286 29.09836 -2.09836 -9.80691 -20.34097 -6.45008 -3.48272 -3.88647 34.7456 6.36956 5.79152 -24.59886 -6.75457 1.14106 2.80763
0.00129 0.00105 -0.00238 30.29816 -17.80626 -3.7217 43.3202 -0.93317 -5.39433 -15.18984 4.23862 -1.15505 -20.21798 -5.38046 -19.28247 27.05093 95.24803 8.22879 1.64439 -30.47369 20.37742 -5.15684 57.36935 -105.52153 18.04793 -1.62564 29.16545 -2.1142 -10.26146 -20.3101 -6.41386 -3.43955 -3.85676 34.81838 6.37228 5.43842 -24.61904 -6.72309 1.21276 2.83819
0.00178 0.00136 -0.00278 30.00522 -17.66655 -3.84427 43.37923 -0.85277 -5.1554 -15.55902 4.46321 -1.1666 -20.51447 -5.35437 -19.45354 28.12663 95.72224 8.38684 1.74975 -33.39322 22.95645 -7.20656 63.7042 -106.00786 18.30463 -1.6861 28.99277 -2.03866 -10.46777 -20.27528 -6.40138 -3.39797 -3.8325 34.59503 6.43708 5.08592 -24.61061 -6.70113 1.28071 2.86803
